<?xml version="1.0" encoding="utf-8"?>
<!-- Generator: Adobe Illustrator 15.1.0, SVG Export Plug-In . SVG Version: 6.00 Build 0)  -->
<!DOCTYPE svg PUBLIC "-//W3C//DTD SVG 1.1//EN" "http://www.w3.org/Graphics/SVG/1.1/DTD/svg11.dtd">
<svg version="1.1" xmlns="http://www.w3.org/2000/svg" xmlns:xlink="http://www.w3.org/1999/xlink" x="0px" y="0px" width="800px"
	 height="600px" viewBox="0 0 800 600" enable-background="new 0 0 800 600" xml:space="preserve">
<g id="Couleurs_1_">
	<path fill="#FFD03F" d="M326.25,186.25l-1,50l-11.125-1.75c0,0,0.25,15.25,8.625,17.875c-2.625,8.5,4.625,33.25,49.625,27.75
		s46.375-16.75,49.375-23.25c3.25-1.875,8.875-17.75,6.875-22.375l-8.75,3.75L404,170.625l-32.625-4.25L326.25,186.25z"/>
	<path fill="#FFE49F" d="M380.869,188.267c-4.936,9.279-24.619,29.283-43.359,21.649c0.202,5.961-1.498,11.079-6.078,17.369
		c0.378,2.61,1.286,8.495,2.068,10.59C337,247.25,353,260,371.75,258s33.375-19.625,35-27.5c1.617-7.837-2.088-18.395-2.123-18.495
		c-1.294-1.688-2.282-3.645-2.56-5.543C391.06,204.458,383.298,197.393,380.869,188.267z"/>
</g>
<g id="Dessin">
	<path fill="none" stroke="#000000" stroke-miterlimit="10" d="M326.25,186.25l-1,50l-11.125-1.75c0,0,0.25,15.25,8.625,17.875
		c-2.625,8.5,4.625,33.25,49.625,27.75s46.375-16.75,49.375-23.25c3.25-1.875,8.875-17.75,6.875-22.375l-8.75,3.75L404,170.625
		l-32.625-4.25L326.25,186.25z"/>
	<path fill="none" stroke="#000000" stroke-miterlimit="10" d="M405.25,213.875c0,0,3.125,8.75,1.5,16.625s-16.25,25.5-35,27.5
		S337,247.25,333.5,237.875c-1.017-2.724-2.125-10.25-2.125-10.25"/>
	<path fill="none" stroke="#000000" stroke-miterlimit="10" d="M344.75,237l51.125-7.125c0,0,0.5,4.125-2.25,7.875
		s-11.581,12.351-25.75,12.25C350.375,249.875,344.75,237,344.75,237z"/>
	<path fill="none" stroke="#000000" stroke-miterlimit="10" d="M380.25,185.125C381.875,198,393.625,207.75,410.375,207"/>
	<path fill="none" stroke="#000000" stroke-miterlimit="10" d="M380.875,188.281c-4,8.875-24.625,30.344-44.375,21.219"/>
	<path fill="none" stroke="#000000" stroke-miterlimit="10" d="M337.375,210.125c0.375,7.75-2.25,13.375-10.25,22.5"/>
	<path fill="none" stroke="#000000" stroke-miterlimit="10" d="M402.25,206.5c0.25,3.75,3.25,7.25,6.25,9.125"/>
	<polygon fill="none" stroke="#000000" stroke-miterlimit="10" points="309.125,192.125 428.375,163.75 386.5,156.625 333.125,170 	
		"/>
	<g id="Couleurs">
	</g>
</g>
</svg>
